<?xml version="1.0" encoding="UTF-8"?>
<svg id="Layer_1" data-name="Layer 1" xmlns="http://www.w3.org/2000/svg" xmlns:xlink="http://www.w3.org/1999/xlink" viewBox="0 0 864 864">
  <defs>
    <style>
      .cls-1 {
        fill: url(#New_Gradient_Swatch_copy);
      }
    </style>
    <linearGradient id="New_Gradient_Swatch_copy" data-name="New Gradient Swatch copy" x1="253.92" y1="363.94" x2="877.65" y2="593.32" gradientUnits="userSpaceOnUse">
      <stop offset=".07" stop-color="#3d0080"/>
      <stop offset=".13" stop-color="#400b84"/>
      <stop offset=".24" stop-color="#4a2b90"/>
      <stop offset=".38" stop-color="#5a5ea4"/>
      <stop offset=".53" stop-color="#6d98ba"/>
      <stop offset=".8" stop-color="#a8c5dd"/>
      <stop offset="1" stop-color="#d7e9f9"/>
    </linearGradient>
  </defs>
  <path class="cls-1" d="m673.56,289.11c-37.39-19.02-99.11-24.23-99.11-24.23h0s0,0,0,0c-23.29-3.5-42.39-4.67-59.12-4.67-82.99,0-132.55,42.61-132.55,106.25,0,42.03,22.09,75.32,69.86,104.5l47.76,29.19c43.59,26.86,60.31,51.38,60.31,85.82,0,41.09-23.41,67.78-69.02,76.48-12.74,1.6-25.83,2.72-39.19,3.11-15.38-.05-34.06-.5-52.43-2.95-117.32-17.77-196.79-108.75-196.79-231.06,0-136.67,99.18-233.53,239.56-233.53,25.18,0,49.6,3.01,72.48,6.76v-46.56c-23.65-3.77-49.59-6.76-76.29-6.76-162.5,0-289.15,113.39-289.15,280.09s126.64,280.84,289.15,280.84c1.01,0,1.9-.09,2.88-.11,1.11.04,2.24.07,3.48.11,139.1,4.11,166.18-57.72,166.18-130.11,0-47.29-25.08-84.64-78.81-117.34l-45.38-27.44c-38.22-23.35-54.34-44.95-54.34-74.72,0-42.62,30.03-56.47,90.93-56.47,13.36,0,28.96,2.2,45.53,4.55,42.36,7.67,60.54,13.05,75.88,20.72,13.86,6.94,21.06,17.79,19.95,43.19l-3.66,337.46,52.06.17.23-223.65v-108.33c-.01-46.74,4.82-68.29-40.4-91.27Z"/>
</svg>