<?xml version="1.0" encoding="UTF-8"?>
<svg id="Layer_1" data-name="Layer 1" xmlns="http://www.w3.org/2000/svg" xmlns:xlink="http://www.w3.org/1999/xlink" viewBox="0 0 1920 621.67">
  <defs>
    <style>
      .cls-1 {
        fill: url(#linear-gradient);
      }

      .cls-2 {
        fill: #3d0080;
      }
    </style>
    <linearGradient id="linear-gradient" x1="431.21" y1="482.04" x2="150.66" y2="170.27" gradientUnits="userSpaceOnUse">
      <stop offset=".02" stop-color="#d81e2b"/>
      <stop offset=".19" stop-color="#281536"/>
      <stop offset=".38" stop-color="#381442"/>
      <stop offset=".74" stop-color="#400a84"/>
    </linearGradient>
  </defs>
  <path class="cls-1" d="m396.45,244.39c-18.04-9.18-47.82-11.69-47.82-11.69h0s0,0,0,0c-11.24-1.69-20.46-2.25-28.53-2.25-40.05,0-63.95,20.56-63.95,51.26,0,20.28,10.66,36.34,33.71,50.42l23.05,14.08c21.03,12.96,29.1,24.79,29.1,41.41,0,19.83-11.3,32.7-33.3,36.9-6.15.77-12.47,1.31-18.91,1.5-7.42-.02-16.43-.24-25.3-1.42-56.61-8.58-94.96-52.47-94.96-111.49,0-65.94,47.86-112.68,115.59-112.68,12.15,0,23.93,1.45,34.97,3.26v-22.46c-11.41-1.82-23.93-3.26-36.81-3.26-78.41,0-139.52,54.71-139.52,135.15s61.11,135.51,139.52,135.51c.49,0,.92-.04,1.39-.05.53.02,1.08.03,1.68.05,67.12,1.98,80.19-27.85,80.19-62.78,0-22.82-12.1-40.84-38.03-56.62l-21.9-13.24c-18.44-11.27-26.22-21.69-26.22-36.05,0-20.57,14.49-27.25,43.87-27.25,6.44,0,13.98,1.06,21.97,2.2,20.44,3.7,29.21,6.29,36.61,10,6.69,3.35,10.16,8.58,9.62,20.84l-1.77,162.83,25.12.08.11-107.91v-52.27c0-22.55,2.32-32.95-19.5-44.04Z"/>
  <g>
    <g>
      <path class="cls-2" d="m600.64,155.81c6.54,0,12.88.78,18.82,1.75,1.86.31,4.96-1.73,4.96-6.05,0-3.09-2.06-5.47-4.96-6.04-6.14-.98-12.88-1.75-19.81-1.75-42.2,0-75.09,29.44-75.09,72.73s32.89,72.93,75.09,72.93c6.93,0,13.67-.78,19.81-1.75h0c2.9-.57,4.96-2.94,4.96-6.04,0-4.32-3.1-6.36-4.96-6.05h0c-5.94.97-12.29,1.75-18.82,1.75-36.45,0-62.21-25.35-62.21-60.84s25.76-60.64,62.21-60.64"/>
      <path class="cls-2" d="m912.13,191.53c0-2.99-1.99-5.29-4.8-5.84v-.04c-6.14-.97-12.08-1.56-16.84-1.56-30.91,0-53.1,21.65-53.1,52.65s22.19,52.65,53.1,52.65c4.76,0,10.7-.58,16.84-1.75,2.8-.55,4.8-2.85,4.8-5.84,0-4.18-2.99-6.15-4.8-5.85h0c-6.74.96-11.89,1.35-15.65,1.35-24.77,0-41.41-16.57-41.41-40.56s16.64-40.76,41.41-40.76c3.76,0,8.91.39,15.65,1.36v.03c1.8.3,4.8-1.67,4.8-5.85"/>
      <path class="cls-2" d="m650.58,155.37c-4.84,0-8.44,3.54-8.44,8.3s3.59,8.27,8.44,8.27,8.4-3.54,8.4-8.27-3.59-8.3-8.4-8.3"/>
      <path class="cls-2" d="m650.54,181.4c-3.24,0-6.16,2.02-6.32,5.03v102.96h12.68v-102.96c-.06-2-1.84-5.03-6.36-5.03"/>
      <path class="cls-2" d="m806.3,155.45c-4.84,0-8.44,3.54-8.44,8.3s3.59,8.27,8.44,8.27,8.4-3.54,8.4-8.27-3.59-8.3-8.4-8.3"/>
      <path class="cls-2" d="m805.67,181.4c-3.24,0-6.16,2.02-6.32,5.03v102.96h12.68v-102.96c-.06-2-1.84-5.03-6.36-5.03"/>
      <path class="cls-2" d="m769.3,181.4c-6.13,0-6.94,2.93-7.76,5.02h0l-32.89,85.61-33.09-85.61c-.79-2.61-3.06-5.02-8.09-5.02-3.59,0-6.87,1.73-5.98,5.02l41.01,102.96h11.89l40.62-102.96h.03c.42-1.48,2.16-5.02-5.74-5.02"/>
    </g>
    <g>
      <path class="cls-2" d="m1309.85,186.43h-13.67v-34.32h-12.68v34.32h0s-13.67,0-13.67,0v11.69h13.67v91.27h12.68v-91.26h13.67c1.85-.03,4.8-1.68,4.8-5.86,0-2.99-2.75-5.85-4.8-5.84Z"/>
      <polygon class="cls-2" points="1440.83 271.45 1412.1 186.43 1400.21 186.43 1370.89 272.23 1343.75 186.43 1330.27 186.43 1363.96 289.39 1376.24 289.39 1405.96 204.76 1435.28 289.39 1446.97 289.39 1481.25 186.43 1468.17 186.43 1440.83 271.45"/>
      <path class="cls-2" d="m1047.37,211.59l-15.06-9.16c-12.68-7.8-18.03-15.02-18.03-24.96,0-14.24,10.7-21.84,30.91-21.84,5.73,0,11.85.58,19.16,1.55h0s.02,0,.03,0c.01,0,.02,0,.04,0h0c1.84.25,4.82-1.75,4.82-5.96,0-3.02-2-5.35-4.82-5.93,0,0,0,0,0,0-.02,0-.04-.01-.06-.02h0c-7.7-1.15-14.02-1.54-19.55-1.54-27.54,0-43.78,12.67-43.78,33.93,0,14.04,7.33,25.16,23.18,34.91l15.85,9.75c14.46,8.97,20.01,17.16,20.01,28.67,0,16.97-11.69,25.94-34.67,25.94-7.13,0-15.65-.39-25.36-1.56v.02c-1.92-.32-5.11,1.78-5.11,6.23,0,3.18,2.12,5.63,5.11,6.22h0c10.3,1.18,17.83,1.57,25.56,1.57,30.31,0,47.95-14.43,47.95-38.61,0-15.79-8.32-28.28-26.15-39.2"/>
      <path class="cls-2" d="m1139.5,277.3c-22.98,0-40.02-17.36-40.02-41.34s17.04-41.73,40.02-41.73,40.02,17.55,40.02,41.73-17.04,41.34-40.02,41.34m0-94.97c-30.12,0-52.9,22.62-52.9,53.63s22.79,53.43,52.9,53.43,52.9-22.82,52.9-53.43-22.79-53.63-52.9-53.63"/>
      <path class="cls-2" d="m1543.94,277.5c-23.18,0-40.22-17.35-40.22-41.34s17.04-41.73,40.22-41.73c21.2,0,39.03,14.62,39.03,41.73s-17.83,41.34-39.03,41.34m38.83-73.71c-7.13-12.87-22.59-21.26-40.22-21.26-28.73,0-51.71,22.23-51.71,53.63s22.98,53.24,51.71,53.24c17.63,0,33.09-8.19,40.22-21.06v19.11h11.69v-102.96h-11.69v19.31Z"/>
      <path class="cls-2" d="m1663.37,183.49v-.03s-.08.02-.12.03c-.02,0-.05,0-.07,0v.02c-13.23,2.55-24.28,9.97-30,20.28v-19.31h-11.69v104.91h11.69v-21.06l-.2-32.18c0-23.5,13.03-37.54,30.41-40.89h0c2.72-.65,4.63-2.92,4.63-5.86,0-4.09-2.82-6.07-4.66-5.92"/>
      <path class="cls-2" d="m1726.3,194.43c17.04,0,32.5,9.55,36.45,31.39h-74.69c3.76-17.94,18.23-31.39,38.24-31.39m46.95,60.28c-2.45-1.46-5.66-1.13-7.12.95h0s0,0-.01.01h0c-7.73,13.84-21.39,22.22-38.23,22.22-24.57,0-40.81-18.13-40.81-41.15v-.58h88.76c-.79-35.88-23.58-53.04-49.33-53.04-29.92,0-51.71,23.6-51.71,53.43s21.2,52.84,52.9,52.84c24.37,0,40.02-14.04,47.95-27.69.99-1.67,1.05-4.95-2.39-7"/>
      <g>
        <polygon class="cls-2" points="1217.24 198.13 1224.9 198.14 1224.91 198.14 1224.91 198.13 1217.24 198.13"/>
        <rect class="cls-2" x="1224.9" y="186.43" width="0" height="0"/>
        <path class="cls-2" d="m1224.9,186.43h-12.67s-.01,0-.02,0h12.69Z"/>
        <polygon class="cls-2" points="1212.23 198.13 1217.24 198.13 1212.23 198.13 1212.23 198.13"/>
        <path class="cls-2" d="m1253.24,139.24c-18.82,0-28.33,9.94-28.33,26.91v20.28h0s0,0,0,0h0s-12.69,0-12.69,0h-.98c-2.04,0-4.8,2.85-4.8,5.84,0,4.18,2.95,5.83,4.8,5.85h1s5.01,0,5.01,0h7.67v91.26h12.68v-91.26h14.07v-11.7h-14.07v-19.11c0-11.7,5.35-16.18,17.04-16.18h1.98v-11.9h-3.37Z"/>
      </g>
    </g>
    <g>
      <path class="cls-2" d="m1113.81,348.49c-4.84,0-8.44,3.54-8.44,8.3s3.59,8.27,8.44,8.27,8.4-3.54,8.4-8.27-3.59-8.3-8.4-8.3"/>
      <path class="cls-2" d="m743.36,348.49c-4.85,0-8.44,3.54-8.44,8.3s3.59,8.27,8.44,8.27,8.4-3.54,8.4-8.27-3.59-8.3-8.4-8.3"/>
      <path class="cls-2" d="m864.07,348.49c-4.84,0-8.44,3.54-8.44,8.3s3.59,8.27,8.44,8.27,8.4-3.54,8.4-8.27-3.59-8.3-8.4-8.3"/>
      <path class="cls-2" d="m664.55,377.52c-24.96,0-39.43,15.8-39.43,42.71v62.21h12.68v-61.82c0-20.28,9.31-31.2,26.75-31.2s26.75,10.92,26.75,31.2v61.82h12.68v-62.21c0-26.91-14.66-42.71-39.43-42.71"/>
      <path class="cls-2" d="m958.18,470.53c-23.18,0-40.22-17.35-40.22-41.34s17.04-41.73,40.22-41.73c21.2,0,39.03,14.62,39.03,41.73s-17.83,41.34-39.03,41.34m38.83-73.71c-7.13-12.87-22.59-21.26-40.22-21.26-28.73,0-51.71,22.23-51.71,53.63s22.98,53.24,51.71,53.24c17.63,0,33.09-8.19,40.22-21.06v19.11h11.69v-102.96h-11.69v19.31Z"/>
      <path class="cls-2" d="m1113.77,374.44c-3.24,0-6.16,2.02-6.32,5.03v102.96h12.68v-102.96c-.06-2-1.84-5.03-6.36-5.03"/>
      <path class="cls-2" d="m743.32,374.44c-3.24,0-6.16,2.02-6.32,5.03v102.96h12.68v-102.96c-.06-2-1.84-5.03-6.36-5.03"/>
      <path class="cls-2" d="m864.04,374.44c-3.24,0-6.16,2.02-6.32,5.03v102.96h12.68v-102.96c-.06-2-1.84-5.03-6.36-5.03"/>
      <path class="cls-2" d="m582.72,334.62c-4.74,0-6.96,3.28-6.63,5.26h-.03v142.55h13.27v-142.55c-.62-3.07-3.23-5.26-6.61-5.26"/>
      <path class="cls-2" d="m1305.61,387.47c17.04,0,32.5,9.55,36.45,31.39h-74.69c3.76-17.94,18.23-31.39,38.24-31.39m46.95,60.28c-2.45-1.46-5.66-1.13-7.12.95h0s0,0-.01.01h0c-7.73,13.84-21.4,22.22-38.23,22.22-24.57,0-40.81-18.13-40.81-41.15v-.58h88.76c-.79-35.88-23.58-53.04-49.33-53.04-29.92,0-51.71,23.6-51.71,53.43s21.2,52.84,52.9,52.84c24.37,0,40.02-14.04,47.95-27.69l-.04-.03.04.03c.99-1.67,1.05-4.95-2.39-7"/>
      <path class="cls-2" d="m1236.31,374.44c-6.13,0-6.94,2.93-7.76,5.02h0l-32.89,85.61-33.09-85.61h0c-.79-2.61-3.06-5.02-8.09-5.02-3.59,0-6.87,1.73-5.98,5.02h0l41.01,102.96h11.89l40.62-102.96h.02c.42-1.48,2.16-5.02-5.74-5.02"/>
      <path class="cls-2" d="m821.73,379.47h-13.67v-34.32h-12.68v34.32h0s-13.67,0-13.67,0c-2.04,0-4.8,2.85-4.8,5.84,0,4.18,2.95,5.83,4.8,5.85h13.67v91.27h12.68v-91.26h13.67c1.85-.03,4.8-1.68,4.8-5.86,0-2.99-2.75-5.85-4.8-5.84Z"/>
      <path class="cls-2" d="m1073.92,379.47h-13.67v-34.32h-12.68v34.32h0s-13.67,0-13.67,0c-2.04,0-4.8,2.85-4.8,5.84,0,4.18,2.95,5.83,4.8,5.85h13.67v91.27h12.68v-91.26h13.67c1.85-.03,4.8-1.68,4.8-5.86,0-2.99-2.75-5.85-4.8-5.84Z"/>
    </g>
  </g>
</svg>